<svg width="126" height="42" viewBox="0 0 126 42" fill="none" xmlns="http://www.w3.org/2000/svg">
<path d="M0 28.2196V0.776367H9.38467V28.2196H0Z" fill="white"/>
<path d="M28.3521 8.56497V28.2153H19.0466V8.56497H12.2402V0.776367H35.1541V8.56933H28.3521V8.56497Z" fill="white"/>
<path d="M33.0815 20.5052V13.8374H43.8741V20.5052H33.0815Z" fill="white"/>
<path d="M56.2331 28.9914C54.042 28.9914 51.9125 28.6164 49.8402 27.8663C47.7679 27.1162 46.0124 26.1088 44.5781 24.8442L50.2494 18.7214C50.927 19.4715 51.8113 20.1038 52.9068 20.6228C54.0024 21.1417 55.0979 21.399 56.1935 21.399C57.575 21.399 58.2657 20.9717 58.2657 20.1213C58.2657 19.6329 57.9666 19.2317 57.3682 18.9177C56.7698 18.608 55.4367 18.1153 53.3776 17.4437C51.1601 16.7198 49.4134 15.7516 48.1375 14.5349C46.8616 13.3226 46.2192 11.6131 46.2192 9.41959C46.2192 7.79296 46.5624 6.3495 47.2576 5.09791C47.9483 3.84633 48.8679 2.8564 50.0162 2.13249C51.1645 1.40858 52.3965 0.872184 53.712 0.52331C55.0275 0.174437 56.4046 0 57.839 0C59.6913 0 61.5611 0.361956 63.4486 1.08587C65.3405 1.80978 66.986 2.80407 68.394 4.06874L62.6083 9.92109C62.0099 9.19718 61.2576 8.62154 60.36 8.19417C59.4625 7.7668 58.6177 7.55311 57.839 7.55311C56.3255 7.55311 55.5687 7.9674 55.5687 8.79161C55.5687 9.17973 55.7491 9.47192 56.1143 9.6638C56.4794 9.85568 57.2098 10.1348 58.3053 10.4967C59.0621 10.754 59.6605 10.9546 60.1048 11.0985C60.5492 11.2424 61.1432 11.4649 61.8823 11.7788C62.6259 12.0885 63.2243 12.385 63.6818 12.6685C64.1394 12.9519 64.6454 13.327 65.2085 13.7936C65.7673 14.2602 66.2073 14.7355 66.5197 15.2283C66.832 15.7211 67.1004 16.3055 67.3204 16.9901C67.5404 17.6748 67.6504 18.4031 67.6504 19.1793C67.6504 22.2799 66.5153 24.6915 64.2494 26.4097C61.9835 28.1323 59.3085 28.9914 56.2331 28.9914Z" fill="#00FEFF"/>
<path d="M83.1772 19.38H80.5549V28.2196H71.2847V0.776367H83.1728C84.6863 0.776367 86.081 0.93336 87.3569 1.24299C88.6329 1.55261 89.8252 2.04539 90.9339 2.71698C92.0427 3.38856 92.9138 4.3436 93.5562 5.58646C94.1942 6.82496 94.5153 8.29895 94.5153 10.0041C94.5153 11.6307 94.1942 13.0654 93.5562 14.3083C92.9182 15.5468 92.0559 16.5324 90.9735 17.2519C89.8912 17.9758 88.6901 18.5122 87.3745 18.8611C86.0634 19.2056 84.6643 19.38 83.1772 19.38ZM82.5128 7.94572H80.5593V12.3633H82.5128C83.296 12.3633 83.9603 12.1714 84.5059 11.7833C85.0515 11.3952 85.3287 10.8283 85.3287 10.0782C85.3287 8.65655 84.3915 7.94572 82.5128 7.94572Z" fill="#00FEFF"/>
<path d="M114.578 28.2196L107.187 17.2912H107.107V28.2196H98.0352V0.776367H107.068V10.8937H107.147L114.539 0.776367H125.49L115.089 13.3358L126 28.2196H114.578Z" fill="#00FEFF"/>
<path d="M3.00943 35.8905L2.51226 36.4313C2.43306 36.3222 2.31867 36.235 2.16908 36.1653C2.01948 36.0955 1.87429 36.0649 1.7247 36.0649C1.52671 36.0649 1.35072 36.1129 1.19673 36.2132C1.04274 36.3092 0.967945 36.4574 0.967945 36.6493C0.967945 36.7453 0.985544 36.8281 1.02074 36.8935C1.05594 36.9589 1.11754 37.02 1.20113 37.0723C1.28913 37.1247 1.36832 37.1639 1.44752 37.1944C1.52231 37.2206 1.63671 37.2598 1.7863 37.3078C1.92709 37.3514 2.04588 37.3907 2.13388 37.4212C2.22627 37.4517 2.33187 37.5041 2.45946 37.5738C2.58705 37.6436 2.68825 37.7177 2.76304 37.8006C2.83784 37.8835 2.90383 37.9838 2.95663 38.1146C3.00943 38.2454 3.04023 38.3893 3.04023 38.5507C3.04023 38.9868 2.89064 39.3226 2.59585 39.558C2.29667 39.7935 1.92709 39.9113 1.47832 39.9113C1.19233 39.9113 0.915148 39.859 0.651163 39.7543C0.382778 39.6409 0.16719 39.4926 0 39.2964L0.545569 38.7905C0.651163 38.9301 0.791955 39.0435 0.963545 39.1307C1.13954 39.2179 1.31113 39.2615 1.48272 39.2615C1.6895 39.2615 1.86989 39.2092 2.02388 39.1045C2.17788 38.9998 2.25707 38.8429 2.25707 38.6292C2.25707 38.555 2.24827 38.494 2.22627 38.4329C2.21307 38.3762 2.17348 38.3239 2.12068 38.2759C2.06788 38.228 2.01948 38.1887 1.97989 38.1582C1.93589 38.1277 1.86549 38.0971 1.7599 38.0579C1.65871 38.0186 1.58391 37.9925 1.53991 37.975C1.49591 37.9576 1.40792 37.9314 1.27153 37.8922C1.11754 37.8442 0.985544 37.7962 0.87555 37.7439C0.765556 37.6916 0.655563 37.6218 0.536769 37.5302C0.422376 37.4386 0.334381 37.3253 0.272784 37.1813C0.211188 37.0374 0.18039 36.8717 0.18039 36.6842C0.18039 36.2786 0.334381 35.969 0.642363 35.7553C0.950346 35.5416 1.31992 35.4326 1.7511 35.4326C1.97549 35.4326 2.20427 35.4719 2.42866 35.5504C2.65745 35.6289 2.85104 35.7422 3.00943 35.8905Z" fill="#00FEFF"/>
<path d="M5.01562 39.7978V35.5415H5.78118V39.7978H5.01562Z" fill="#00FEFF"/>
<path d="M7.93701 39.7978V35.5415H9.12934L10.2469 38.5636H10.2645L11.3688 35.5415H12.5699V39.7978H11.8132V36.3788H11.8L10.4977 39.7978H9.9653L8.68057 36.3788H8.66737V39.7978H7.93701Z" fill="#00FEFF"/>
<path d="M14.7305 39.7978V35.5415H16.1296C17.2075 35.5415 17.7487 35.9514 17.7487 36.7756C17.7487 37.2161 17.5947 37.5388 17.2867 37.7394C16.9787 37.94 16.5784 38.0403 16.0812 38.0403H15.4916V39.8021H14.7305V39.7978ZM15.496 37.3993H16.0284C16.662 37.3993 16.9787 37.1899 16.9787 36.7756C16.9787 36.5489 16.8951 36.3919 16.728 36.309C16.5608 36.2262 16.3364 36.1826 16.0504 36.1826H15.4916V37.3993H15.496Z" fill="#00FEFF"/>
<path d="M19.6406 39.7978V35.5415H20.4062V39.1218H22.2321V39.7934H19.6406V39.7978Z" fill="#00FEFF"/>
<path d="M23.9521 39.7978V35.5415H26.7944V36.2044H24.7133V37.2859H26.6844V37.9226H24.7133V39.1262H26.9044V39.7978H23.9521Z" fill="#00FEFF"/>
<path d="M31.5947 39.7978V35.5415H32.9938C34.0718 35.5415 34.613 35.9514 34.613 36.7756C34.613 37.2161 34.459 37.5388 34.151 37.7394C33.843 37.94 33.4426 38.0403 32.9454 38.0403H32.3559V39.8021H31.5947V39.7978ZM32.3603 37.3993H32.8927C33.5262 37.3993 33.843 37.1899 33.843 36.7756C33.843 36.5489 33.7594 36.3919 33.5922 36.309C33.425 36.2262 33.2006 36.1826 32.9147 36.1826H32.3559V37.3993H32.3603Z" fill="#00FEFF"/>
<path d="M36.2979 37.6567C36.2979 36.9851 36.5134 36.4444 36.9446 36.0388C37.3758 35.6332 37.9258 35.4326 38.5989 35.4326C39.2765 35.4326 39.8353 35.6332 40.2664 36.0388C40.6976 36.4444 40.9176 36.9807 40.9176 37.6567C40.9176 38.3195 40.702 38.8559 40.2664 39.2746C39.8309 39.6932 39.2765 39.9026 38.6033 39.9026C37.9346 39.9026 37.3846 39.6932 36.9534 39.2746C36.5178 38.8603 36.2979 38.3195 36.2979 37.6567ZM37.1294 37.6567C37.1294 38.1146 37.2658 38.4896 37.543 38.7818C37.8158 39.0783 38.1721 39.2223 38.6033 39.2223C39.0389 39.2223 39.3953 39.074 39.6725 38.7818C39.9452 38.4853 40.086 38.1102 40.086 37.6567C40.086 37.2119 39.9496 36.8412 39.6769 36.5447C39.4041 36.2481 39.0477 36.0998 38.6077 36.0998C38.1721 36.0998 37.8158 36.2481 37.543 36.5447C37.2658 36.8412 37.1294 37.2119 37.1294 37.6567Z" fill="#00FEFF"/>
<path d="M43.6851 39.7978L42.4312 35.5415H43.2671L44.0987 38.6683H44.1119L45.0578 35.5415H45.8454L46.7737 38.6683H46.7869L47.6361 35.5415H48.45L47.1961 39.7978H46.4569L45.4494 36.6056H45.4362L44.4286 39.7978H43.6851Z" fill="#00FEFF"/>
<path d="M50.1704 39.7978V35.5415H53.0126V36.2044H50.9316V37.2859H52.9027V37.9226H50.9316V39.1262H53.1226V39.7978H50.1704Z" fill="#00FEFF"/>
<path d="M55.0806 39.7978V35.5415H56.5721C56.8581 35.5415 57.1176 35.5808 57.3464 35.6549C57.5752 35.729 57.7688 35.8599 57.9228 36.0517C58.0768 36.2436 58.156 36.4791 58.156 36.7626C58.156 37.0635 58.068 37.312 57.8964 37.5126C57.7204 37.7089 57.4828 37.8441 57.1748 37.9138L58.3188 39.8021H57.3948L56.4005 38.0011H55.8417V39.8021H55.0806V39.7978ZM55.8461 37.3731H56.4709C57.0869 37.3731 57.3948 37.1681 57.3948 36.7538C57.3948 36.5445 57.3112 36.3962 57.144 36.309C56.9769 36.2218 56.7745 36.1782 56.5369 36.1782H55.8461V37.3731Z" fill="#00FEFF"/>
<path d="M62.6304 37.6567C62.6304 36.9851 62.846 36.4444 63.2771 36.0388C63.7083 35.6332 64.2583 35.4326 64.9314 35.4326C65.609 35.4326 66.1678 35.6332 66.5989 36.0388C67.0301 36.4444 67.2501 36.9807 67.2501 37.6567C67.2501 38.3195 67.0345 38.8559 66.5989 39.2746C66.1634 39.6932 65.609 39.9026 64.9358 39.9026C64.2671 39.9026 63.7171 39.6932 63.2859 39.2746C62.846 38.8603 62.6304 38.3195 62.6304 37.6567ZM63.4619 37.6567C63.4619 38.1146 63.5983 38.4896 63.8755 38.7818C64.1483 39.0783 64.5047 39.2223 64.9358 39.2223C65.3714 39.2223 65.7278 39.074 66.005 38.7818C66.2778 38.4853 66.4185 38.1102 66.4185 37.6567C66.4185 37.2119 66.2822 36.8412 66.0094 36.5447C65.7366 36.2481 65.3802 36.0998 64.9402 36.0998C64.5047 36.0998 64.1483 36.2481 63.8755 36.5447C63.5983 36.8412 63.4619 37.2119 63.4619 37.6567Z" fill="#00FEFF"/>
<path d="M69.1992 39.7978V35.5415H71.9711V36.2044H69.9648V37.3687H71.8567V38.0054H69.9648V39.7978H69.1992Z" fill="#00FEFF"/>
<path d="M76.6128 39.7978V35.5415H77.3783V37.3818H77.396L79.1911 35.5415H80.2206L78.2143 37.5083L80.357 39.7978H79.2834L77.396 37.6653H77.3783V39.7978H76.6128Z" fill="#00FEFF"/>
<path d="M82.0068 39.7978V35.5415H83.0188L85.0119 38.7293H85.0251V35.5415H85.7906V39.7978H84.8183L82.7812 36.5096H82.768V39.7978H82.0068Z" fill="#00FEFF"/>
<path d="M87.7397 37.6567C87.7397 36.9851 87.9553 36.4444 88.3865 36.0388C88.8177 35.6332 89.3677 35.4326 90.0408 35.4326C90.7184 35.4326 91.2772 35.6332 91.7083 36.0388C92.1395 36.4444 92.3595 36.9807 92.3595 37.6567C92.3595 38.3195 92.1439 38.8559 91.7083 39.2746C91.2728 39.6932 90.7184 39.9026 90.0452 39.9026C89.3765 39.9026 88.8265 39.6932 88.3953 39.2746C87.9597 38.8603 87.7397 38.3195 87.7397 37.6567ZM88.5713 37.6567C88.5713 38.1146 88.7077 38.4896 88.9849 38.7818C89.2577 39.0783 89.614 39.2223 90.0452 39.2223C90.4808 39.2223 90.8372 39.074 91.1144 38.7818C91.3871 38.4853 91.5279 38.1102 91.5279 37.6567C91.5279 37.2119 91.3915 36.8412 91.1188 36.5447C90.846 36.2481 90.4896 36.0998 90.0496 36.0998C89.614 36.0998 89.2577 36.2481 88.9849 36.5447C88.7077 36.8412 88.5713 37.2119 88.5713 37.6567Z" fill="#00FEFF"/>
<path d="M95.127 39.7978L93.873 35.5415H94.709L95.5405 38.6683H95.5537L96.4997 35.5415H97.2873L98.2156 38.6683H98.2288L99.078 35.5415H99.8919L98.638 39.7978H97.8988L96.8913 36.6056H96.8781L95.8705 39.7978H95.127Z" fill="#00FEFF"/>
<path d="M101.612 39.7978V35.5415H102.378V39.1218H104.204V39.7934H101.612V39.7978Z" fill="#00FEFF"/>
<path d="M105.924 39.7978V35.5415H108.766V36.2044H106.685V37.2859H108.656V37.9226H106.685V39.1262H108.876V39.7978H105.924Z" fill="#00FEFF"/>
<path d="M110.834 39.7978V35.5415H112.356C112.655 35.5415 112.937 35.5808 113.205 35.6549C113.474 35.729 113.725 35.8468 113.958 36.0038C114.191 36.1608 114.38 36.3832 114.521 36.671C114.662 36.9588 114.728 37.2902 114.728 37.6696C114.728 38.0272 114.657 38.3456 114.521 38.6247C114.38 38.9038 114.195 39.1305 113.962 39.2963C113.729 39.462 113.478 39.5884 113.205 39.6713C112.933 39.7542 112.651 39.7978 112.361 39.7978H110.834ZM111.6 39.1349H112.238C112.405 39.1349 112.563 39.1218 112.713 39.0913C112.862 39.0651 113.016 39.0128 113.166 38.943C113.315 38.8732 113.443 38.786 113.553 38.677C113.659 38.5723 113.747 38.4284 113.813 38.2584C113.879 38.0839 113.914 37.8877 113.914 37.6653C113.914 36.6797 113.355 36.1869 112.242 36.1869H111.604V39.1349H111.6Z" fill="#00FEFF"/>
<path d="M120.439 37.3689V39.5755C119.972 39.7979 119.436 39.907 118.82 39.907C118.129 39.907 117.566 39.6976 117.126 39.2833C116.69 38.8647 116.47 38.3239 116.47 37.6611C116.47 36.9939 116.69 36.4531 117.13 36.0475C117.57 35.642 118.125 35.437 118.802 35.437C119.132 35.437 119.444 35.485 119.735 35.5809C120.025 35.6769 120.258 35.8077 120.434 35.9734L119.906 36.5403C119.792 36.4182 119.638 36.3136 119.44 36.2307C119.242 36.1478 119.031 36.1086 118.811 36.1086C118.367 36.1086 118.006 36.2569 117.733 36.5534C117.46 36.8499 117.319 37.2206 117.319 37.6654C117.319 38.1277 117.456 38.5027 117.733 38.7949C118.01 39.0871 118.38 39.2354 118.846 39.2354C119.172 39.2354 119.458 39.1874 119.7 39.0871V38.0056H118.798V37.382H120.439V37.3689Z" fill="#00FEFF"/>
<path d="M122.582 39.7978V35.5415H125.424V36.2044H123.343V37.2859H125.314V37.9226H123.343V39.1262H125.534V39.7978H122.582Z" fill="#00FEFF"/>
<path d="M125.534 41.564H0V42.0001H125.534V41.564Z" fill="#00FEFF"/>
</svg>
