<svg xmlns="http://www.w3.org/2000/svg">
  <symbol viewBox="0 0 24 24" id="arrow-right">
    <path fill-rule="evenodd" d="M16.72 7.72a.75.75 0 011.06 0l3.75 3.75a.75.75 0 010 1.06l-3.75 3.75a.75.75 0 11-1.06-1.06l2.47-2.47H3a.75.75 0 010-1.5h16.19l-2.47-2.47a.75.75 0 010-1.06z" clip-rule="evenodd" />
  </symbol>


<symbol viewBox="0 0 24 24" id="arrow-down-tray">
  <path fill-rule="evenodd" d="M12 2.25a.75.75 0 01.75.75v11.69l3.22-3.22a.75.75 0 111.06 1.06l-4.5 4.5a.75.75 0 01-1.06 0l-4.5-4.5a.75.75 0 111.06-1.06l3.22 3.22V3a.75.75 0 01.75-.75zm-9 13.5a.75.75 0 01.75.75v2.25a1.5 1.5 0 001.5 1.5h13.5a1.5 1.5 0 001.5-1.5V16.5a.75.75 0 011.5 0v2.25a3 3 0 01-3 3H5.25a3 3 0 01-3-3V16.5a.75.75 0 01.75-.75z" clip-rule="evenodd" />
</symbol>


</svg>